{"asset":{"version":"2.0","generator":"Blockbench 4.10.3 glTF exporter"},"scenes":[{"nodes":[2],"name":"blockbench_export"}],"scene":0,"nodes":[{"translation":[0,-0.1625,0],"name":"cuboid","mesh":0},{"translation":[0,0.16250000000000003,0],"name":"cuboid","mesh":1},{"children":[0,1]}],"bufferViews":[{"buffer":0,"byteOffset":0,"byteLength":768,"target":34962,"byteStride":12},{"buffer":0,"byteOffset":768,"byteLength":768,"target":34962,"byteStride":12},{"buffer":0,"byteOffset":1536,"byteLength":512,"target":34962,"byteStride":8},{"buffer":0,"byteOffset":2048,"byteLength":192,"target":34963},{"buffer":0,"byteOffset":2240,"byteLength":768,"target":34962,"byteStride":12},{"buffer":0,"byteOffset":3008,"byteLength":768,"target":34962,"byteStride":12},{"buffer":0,"byteOffset":3776,"byteLength":512,"target":34962,"byteStride":8},{"buffer":0,"byteOffset":4288,"byteLength":192,"target":34963}],"buffers":[{"byteLength":4480,"uri":"data:application/octet-stream;base64,"}],"accessors":[{"bufferView":0,"componentType":5126,"count":64,"max":[0.6499999761581421,0.34375,0.6499999761581421],"min":[-0.6499999761581421,0.15625,-0.6499999761581421],"type":"VEC3"},{"bufferView":1,"componentType":5126,"count":64,"max":[0.9578262567520142,1,0.9578262567520142],"min":[-0.9578262567520142,-1,-0.9578262567520142],"type":"VEC3"},{"bufferView":2,"componentType":5126,"count":64,"max":[0.9375,0.75],"min":[0.0015625000232830644,0],"type":"VEC2"},{"bufferView":3,"componentType":5123,"count":96,"max":[63],"min":[0],"type":"SCALAR"},{"bufferView":4,"componentType":5126,"count":64,"max":[0.5562499761581421,0.5,0.5562499761581421],"min":[-0.5562499761581421,0,-0.5562499761581421],"type":"VEC3"},{"bufferView":5,"componentType":5126,"count":64,"max":[0.9578262567520142,1,0.9578262567520142],"min":[-0.9578262567520142,-1,-0.9578262567520142],"type":"VEC3"},{"bufferView":6,"componentType":5126,"count":64,"max":[0.796875,0.8125],"min":[0,0],"type":"VEC2"},{"bufferView":7,"componentType":5123,"count":96,"max":[63],"min":[0],"type":"SCALAR"}],"materials":[{"pbrMetallicRoughness":{"metallicFactor":0,"roughnessFactor":1,"baseColorTexture":{"index":0}},"alphaMode":"MASK","alphaCutoff":0.05,"doubleSided":true}],"textures":[{"sampler":0,"source":0,"name":"Ventlight.png"}],"samplers":[{"magFilter":9728,"minFilter":9728,"wrapS":33071,"wrapT":33071}],"images":[{"mimeType":"image/png","uri":"data:image/png;base64,"}],"meshes":[{"primitives":[{"mode":4,"attributes":{"POSITION":0,"NORMAL":1,"TEXCOORD_0":2},"indices":3,"material":0}]},{"primitives":[{"mode":4,"attributes":{"POSITION":4,"NORMAL":5,"TEXCOORD_0":6},"indices":7,"material":0}]}]}