{"asset":{"version":"2.0","generator":"Blockbench 4.10.3 glTF exporter"},"scenes":[{"nodes":[12],"name":"blockbench_export"}],"scene":0,"nodes":[{"translation":[0,-0.34062500000000195,0],"name":"Bulb","mesh":0},{"translation":[0,-0.4749999999999992,0],"name":"socket","mesh":1},{"translation":[0,3.6968750000000004,0],"name":"Bulb","children":[0,1]},{"translation":[0,-3.6968750000000004,0],"name":"Base","mesh":2},{"translation":[0,-2.0578125,0],"name":"Pole","mesh":3},{"rotation":[0.10198822122300709,0.009067421816122696,-0.08449705517099187,0.9911490464409508],"translation":[0.13281249999999994,-0.30312499999999654,0.12500000000000006],"name":"cuboid","mesh":4},{"translation":[0,-0.5531250000000005,0],"name":"LightBase","mesh":5},{"rotation":[0,-1,0,6.123233995736766e-17],"name":"Top","mesh":6},{"rotation":[-0.09793772407592692,0.025389246922915595,-0.0962178243753038,0.9902048871905238],"translation":[0.12812499999999996,-0.30312499999999654,-0.12343750000000006],"name":"cuboid","mesh":7},{"rotation":[0.10195368011218757,-0.009447884324354566,0.0953804557109828,0.9901609734087385],"translation":[-0.12656250000000008,-0.30312499999999654,0.12500000000000006],"name":"cuboid","mesh":8},{"rotation":[-0.0889176407876557,0.008561794999414013,0.09546257875500762,0.9914167866647152],"translation":[-0.1748501240377439,-0.062120176360915824,-0.1831478433413869],"name":"cuboid","mesh":9},{"translation":[0,3.6968750000000004,0],"name":"Post","children":[3,4,5,6,7,8,9,10]},{"children":[2,11]}],"bufferViews":[{"buffer":0,"byteOffset":0,"byteLength":288,"target":34962,"byteStride":12},{"buffer":0,"byteOffset":288,"byteLength":288,"target":34962,"byteStride":12},{"buffer":0,"byteOffset":576,"byteLength":192,"target":34962,"byteStride":8},{"buffer":0,"byteOffset":768,"byteLength":72,"target":34963},{"buffer":0,"byteOffset":840,"byteLength":288,"target":34962,"byteStride":12},{"buffer":0,"byteOffset":1128,"byteLength":288,"target":34962,"byteStride":12},{"buffer":0,"byteOffset":1416,"byteLength":192,"target":34962,"byteStride":8},{"buffer":0,"byteOffset":1608,"byteLength":72,"target":34963},{"buffer":0,"byteOffset":1680,"byteLength":768,"target":34962,"byteStride":12},{"buffer":0,"byteOffset":2448,"byteLength":768,"target":34962,"byteStride":12},{"buffer":0,"byteOffset":3216,"byteLength":512,"target":34962,"byteStride":8},{"buffer":0,"byteOffset":3728,"byteLength":192,"target":34963},{"buffer":0,"byteOffset":3920,"byteLength":768,"target":34962,"byteStride":12},{"buffer":0,"byteOffset":4688,"byteLength":768,"target":34962,"byteStride":12},{"buffer":0,"byteOffset":5456,"byteLength":512,"target":34962,"byteStride":8},{"buffer":0,"byteOffset":5968,"byteLength":192,"target":34963},{"buffer":0,"byteOffset":6160,"byteLength":288,"target":34962,"byteStride":12},{"buffer":0,"byteOffset":6448,"byteLength":288,"target":34962,"byteStride":12},{"buffer":0,"byteOffset":6736,"byteLength":192,"target":34962,"byteStride":8},{"buffer":0,"byteOffset":6928,"byteLength":72,"target":34963},{"buffer":0,"byteOffset":7000,"byteLength":288,"target":34962,"byteStride":12},{"buffer":0,"byteOffset":7288,"byteLength":288,"target":34962,"byteStride":12},{"buffer":0,"byteOffset":7576,"byteLength":192,"target":34962,"byteStride":8},{"buffer":0,"byteOffset":7768,"byteLength":72,"target":34963},{"buffer":0,"byteOffset":7840,"byteLength":1056,"target":34962,"byteStride":12},{"buffer":0,"byteOffset":8896,"byteLength":1056,"target":34962,"byteStride":12},{"buffer":0,"byteOffset":9952,"byteLength":704,"target":34962,"byteStride":8},{"buffer":0,"byteOffset":10656,"byteLength":264,"target":34963},{"buffer":0,"byteOffset":10920,"byteLength":288,"target":34962,"byteStride":12},{"buffer":0,"byteOffset":11208,"byteLength":288,"target":34962,"byteStride":12},{"buffer":0,"byteOffset":11496,"byteLength":192,"target":34962,"byteStride":8},{"buffer":0,"byteOffset":11688,"byteLength":72,"target":34963},{"buffer":0,"byteOffset":11760,"byteLength":288,"target":34962,"byteStride":12},{"buffer":0,"byteOffset":12048,"byteLength":288,"target":34962,"byteStride":12},{"buffer":0,"byteOffset":12336,"byteLength":192,"target":34962,"byteStride":8},{"buffer":0,"byteOffset":12528,"byteLength":72,"target":34963},{"buffer":0,"byteOffset":12600,"byteLength":288,"target":34962,"byteStride":12},{"buffer":0,"byteOffset":12888,"byteLength":288,"target":34962,"byteStride":12},{"buffer":0,"byteOffset":13176,"byteLength":192,"target":34962,"byteStride":8},{"buffer":0,"byteOffset":13368,"byteLength":72,"target":34963}],"buffers":[{"byteLength":13440,"uri":"data:application/octet-stream;base64,"}],"accessors":[{"bufferView":0,"componentType":5126,"count":24,"max":[0.0625,0.3203125,0.0625],"min":[-0.0625,0.1796875,-0.0625],"type":"VEC3"},{"bufferView":1,"componentType":5126,"count":24,"max":[1,1,1],"min":[-1,-1,-1],"type":"VEC3"},{"bufferView":2,"componentType":5126,"count":24,"max":[0.5,0.5],"min":[0,0],"type":"VEC2"},{"bufferView":3,"componentType":5123,"count":36,"max":[23],"min":[0],"type":"SCALAR"},{"bufferView":4,"componentType":5126,"count":24,"max":[0.04531250149011612,0.3203125,0.04531250149011612],"min":[-0.04531250149011612,0.1796875,-0.04531250149011612],"type":"VEC3"},{"bufferView":5,"componentType":5126,"count":24,"max":[1,1,1],"min":[-1,-1,-1],"type":"VEC3"},{"bufferView":6,"componentType":5126,"count":24,"max":[0.609375,0.484375],"min":[0.390625,0],"type":"VEC2"},{"bufferView":7,"componentType":5123,"count":36,"max":[23],"min":[0],"type":"SCALAR"},{"bufferView":8,"componentType":5126,"count":64,"max":[0.13437500596046448,0.5,0.12656250596046448],"min":[-0.13437500596046448,0,-0.12656250596046448],"type":"VEC3"},{"bufferView":9,"componentType":5126,"count":64,"max":[0.9175556302070618,1,0.9438583850860596],"min":[-0.9175556302070618,-1,-0.9438583850860596],"type":"VEC3"},{"bufferView":10,"componentType":5126,"count":64,"max":[0.546875,0.65625],"min":[0.25,0],"type":"VEC2"},{"bufferView":11,"componentType":5123,"count":96,"max":[63],"min":[0],"type":"SCALAR"},{"bufferView":12,"componentType":5126,"count":64,"max":[0.09375,1.71875,0.09375],"min":[-0.09375,-1.21875,-0.09375],"type":"VEC3"},{"bufferView":13,"componentType":5126,"count":64,"max":[0.9258553385734558,1,0.9373713135719299],"min":[-0.9258553385734558,-1,-0.9373713135719299],"type":"VEC3"},{"bufferView":14,"componentType":5126,"count":64,"max":[0.546875,0.734375],"min":[0,0],"type":"VEC2"},{"bufferView":15,"componentType":5123,"count":96,"max":[63],"min":[0],"type":"SCALAR"},{"bufferView":16,"componentType":5126,"count":24,"max":[0.015625,0.542187511920929,0.015625],"min":[-0.015625,-0.04218750074505806,-0.015625],"type":"VEC3"},{"bufferView":17,"componentType":5126,"count":24,"max":[1,1,1],"min":[-1,-1,-1],"type":"VEC3"},{"bufferView":18,"componentType":5126,"count":24,"max":[0.578125,0.734375],"min":[0.25,0],"type":"VEC2"},{"bufferView":19,"componentType":5123,"count":36,"max":[23],"min":[0],"type":"SCALAR"},{"bufferView":20,"componentType":5126,"count":24,"max":[0.15625,0.3125,0.15625],"min":[-0.15625,0.1875,-0.15625],"type":"VEC3"},{"bufferView":21,"componentType":5126,"count":24,"max":[1,1,1],"min":[-1,-1,-1],"type":"VEC3"},{"bufferView":22,"componentType":5126,"count":24,"max":[0.609375,0.328125],"min":[0.25,0.140625],"type":"VEC2"},{"bufferView":23,"componentType":5123,"count":36,"max":[23],"min":[0],"type":"SCALAR"},{"bufferView":24,"componentType":5126,"count":88,"max":[0.25,0.5,0.25],"min":[-0.25,0.1875,-0.25],"type":"VEC3"},{"bufferView":25,"componentType":5126,"count":88,"max":[1,0.9805740714073181,1],"min":[-1,-1,-1],"type":"VEC3"},{"bufferView":26,"componentType":5126,"count":88,"max":[0.6875,0.484375],"min":[0.25,0],"type":"VEC2"},{"bufferView":27,"componentType":5123,"count":132,"max":[87],"min":[0],"type":"SCALAR"},{"bufferView":28,"componentType":5126,"count":24,"max":[0.015625,0.542187511920929,0.015625],"min":[-0.015625,-0.04218750074505806,-0.015625],"type":"VEC3"},{"bufferView":29,"componentType":5126,"count":24,"max":[1,1,1],"min":[-1,-1,-1],"type":"VEC3"},{"bufferView":30,"componentType":5126,"count":24,"max":[0.609375,0.6875],"min":[0.390625,0.125],"type":"VEC2"},{"bufferView":31,"componentType":5123,"count":36,"max":[23],"min":[0],"type":"SCALAR"},{"bufferView":32,"componentType":5126,"count":24,"max":[0.015625,0.542187511920929,0.015625],"min":[-0.015625,-0.04218750074505806,-0.015625],"type":"VEC3"},{"bufferView":33,"componentType":5126,"count":24,"max":[1,1,1],"min":[-1,-1,-1],"type":"VEC3"},{"bufferView":34,"componentType":5126,"count":24,"max":[0.609375,0.734375],"min":[0.4375,0.03125],"type":"VEC2"},{"bufferView":35,"componentType":5123,"count":36,"max":[23],"min":[0],"type":"SCALAR"},{"bufferView":36,"componentType":5126,"count":24,"max":[0.015625,0.29218751192092896,0.015625],"min":[-0.015625,-0.29218751192092896,-0.015625],"type":"VEC3"},{"bufferView":37,"componentType":5126,"count":24,"max":[1,1,1],"min":[-1,-1,-1],"type":"VEC3"},{"bufferView":38,"componentType":5126,"count":24,"max":[0.640625,0.734375],"min":[0.53125,0],"type":"VEC2"},{"bufferView":39,"componentType":5123,"count":36,"max":[23],"min":[0],"type":"SCALAR"}],"materials":[{"pbrMetallicRoughness":{"metallicFactor":0,"roughnessFactor":1,"baseColorTexture":{"index":0}},"alphaMode":"MASK","alphaCutoff":0.05,"doubleSided":true},{"pbrMetallicRoughness":{"metallicFactor":0,"roughnessFactor":1,"baseColorTexture":{"index":1}},"alphaMode":"MASK","alphaCutoff":0.05,"doubleSided":true}],"textures":[{"sampler":0,"source":0,"name":"Bulb.png"},{"sampler":1,"source":1,"name":"StreetLight.png"}],"samplers":[{"magFilter":9728,"minFilter":9728,"wrapS":33071,"wrapT":33071},{"magFilter":9728,"minFilter":9728,"wrapS":33071,"wrapT":33071}],"images":[{"mimeType":"image/png","uri":"data:image/png;base64,"},{"mimeType":"image/png","uri":"data:image/png;base64,"}],"meshes":[{"primitives":[{"mode":4,"attributes":{"POSITION":0,"NORMAL":1,"TEXCOORD_0":2},"indices":3,"material":0}]},{"primitives":[{"mode":4,"attributes":{"POSITION":4,"NORMAL":5,"TEXCOORD_0":6},"indices":7,"material":1}]},{"primitives":[{"mode":4,"attributes":{"POSITION":8,"NORMAL":9,"TEXCOORD_0":10},"indices":11,"material":1}]},{"primitives":[{"mode":4,"attributes":{"POSITION":12,"NORMAL":13,"TEXCOORD_0":14},"indices":15,"material":1}]},{"primitives":[{"mode":4,"attributes":{"POSITION":16,"NORMAL":17,"TEXCOORD_0":18},"indices":19,"material":1}]},{"primitives":[{"mode":4,"attributes":{"POSITION":20,"NORMAL":21,"TEXCOORD_0":22},"indices":23,"material":1}]},{"primitives":[{"mode":4,"attributes":{"POSITION":24,"NORMAL":25,"TEXCOORD_0":26},"indices":27,"material":1}]},{"primitives":[{"mode":4,"attributes":{"POSITION":28,"NORMAL":29,"TEXCOORD_0":30},"indices":31,"material":1}]},{"primitives":[{"mode":4,"attributes":{"POSITION":32,"NORMAL":33,"TEXCOORD_0":34},"indices":35,"material":1}]},{"primitives":[{"mode":4,"attributes":{"POSITION":36,"NORMAL":37,"TEXCOORD_0":38},"indices":39,"material":1}]}]}