# Made in Blockbench 4.10.3
mtllib Coins.mtl

o cube
v -0.17676415780017268 0.060394645589059326 -0.06250000000000008
v -0.002105354410940674 0.23926415780017263 -0.06250000000000003
v -0.17676415780017268 0.06039464558905938 0.06249999999999995
v -0.002105354410940674 0.23926415780017268 0.0625
v 0.002105354410940674 -0.11426415780017268 -0.0625
v 0.17676415780017268 0.06460535441094062 -0.06249999999999995
v 0.002105354410940674 -0.11426415780017263 0.06250000000000003
v 0.17676415780017268 0.06460535441094067 0.06250000000000008
v 0.11789469228773161 0.18323692074250142 -0.06249999999999998
v 0.11789469228773158 0.18323692074250147 0.06250000000000006
v -0.11789469228773158 -0.05823692074250142 0.06249999999999998
v -0.11789469228773156 -0.058236920742501475 -0.06250000000000006
v -0.11626518293722368 0.1760282222030008 -0.06250000000000006
v -0.11626518293722368 0.17602822220300085 0.06249999999999997
v -6.938893903907228e-18 0.06250000000000003 0.06250000000000001
v 0.11626518293722365 -0.05102822220300077 0.06250000000000006
v 0.11626518293722368 -0.05102822220300082 -0.06249999999999997
v 6.938893903907228e-18 0.06249999999999997 -0.06250000000000001
vt 0.3125 0.6875
vt 0.4375 0.6875
vt 0.4375 0.8125
vt 0.3125 0.8125
vt 0.5625 0.4375
vt 0.4375 0.4375
vt 0.4375 0.3125
vt 0.5625 0.3125
vt 0 1
vt 0 0.875
vt 0.125 0.875
vt 0.125 1
vt 0.125 0.6875
vt 0.125 0.5625
vt 0 0.5625
vt 0 0.6875
vt 0.5625 0.625
vt 0.4375 0.625
vt 0.4375 0.5
vt 0.5625 0.5
vt 0.3125 0.875
vt 0.4375 0.875
vt 0.4375 1
vt 0.3125 1
vt 0.5625 1
vt 0.4375 1
vt 0.4375 0.875
vt 0.5625 0.875
vt 0.25 0.6875
vt 0.25 0.5625
vt 0.125 0.5625
vt 0.125 0.6875
vt 0.3125 0.5
vt 0.4375 0.5
vt 0.4375 0.625
vt 0.3125 0.625
vt 0.125 1
vt 0.125 0.875
vt 0.25 0.875
vt 0.25 1
vt 0.5625 0.8125
vt 0.4375 0.8125
vt 0.4375 0.6875
vt 0.5625 0.6875
vt 0 0.4375
vt 0 0.5625
vt 0.125 0.5625
vt 0.125 0.4375
vt 0.125 0.4375
vt 0.125 0.5625
vt 0.25 0.5625
vt 0.25 0.4375
vt 0.3125 0.3125
vt 0.4375 0.3125
vt 0.4375 0.4375
vt 0.3125 0.4375
vt 0.25 0.75
vt 0.25 0.875
vt 0.125 0.875
vt 0.125 0.75
vt 0.125 0.75
vt 0.125 0.875
vt 0 0.875
vt 0 0.75
vn -0.8860550330797357 0.46358006682133 -3.0424277545793635e-16
vn 0.4845523302841849 -0.8747622758305061 4.422686032519395e-16
vn 3.537132308412114e-16 -3.504218428800477e-17 -1
vn -3.537132308412114e-16 3.504218428800477e-17 1
vn -0.8957711616866653 -0.4445154956697489 9.795395838811178e-17
vn 0.42305420704786195 0.9061043747268329 -3.554227236812168e-16
vn 0.8957711616866653 0.4445154956697487 -9.795395838811168e-17
vn -3.537132308412114e-16 3.504218428800477e-17 1
vn -0.4230542070478621 -0.9061043747268328 3.554227236812167e-16
vn 3.537132308412114e-16 -3.504218428800477e-17 -1
vn -0.48455233028418465 0.8747622758305061 -4.4226860325193945e-16
vn -3.537132308412114e-16 3.504218428800477e-17 1
vn -3.537132308412114e-16 3.504218428800477e-17 1
vn 0.8860550330797355 -0.4635800668213303 3.0424277545793645e-16
vn 3.537132308412114e-16 -3.504218428800477e-17 -1
vn 3.537132308412114e-16 -3.504218428800477e-17 -1
usemtl m_7c1a42b5-2535-841f-ec68-c27554e46275
f 3/1/1 14/2/1 13/3/1 1/4/1
f 5/5/2 17/6/2 16/7/2 7/8/2
f 1/9/3 13/10/3 18/11/3 12/12/3
f 11/13/4 15/14/4 14/15/4 3/16/4
f 1/17/5 12/18/5 11/19/5 3/20/5
f 4/21/6 10/22/6 9/23/6 2/24/6
f 6/25/7 9/26/7 10/27/7 8/28/7
f 7/29/8 16/30/8 15/31/8 11/32/8
f 7/33/9 11/34/9 12/35/9 5/36/9
f 12/37/10 18/38/10 17/39/10 5/40/10
f 2/41/11 13/42/11 14/43/11 4/44/11
f 4/45/12 14/46/12 15/47/12 10/48/12
f 10/49/13 15/50/13 16/51/13 8/52/13
f 8/53/14 16/54/14 17/55/14 6/56/14
f 6/57/15 17/58/15 18/59/15 9/60/15
f 9/61/16 18/62/16 13/63/16 2/64/16