{"asset":{"version":"2.0","generator":"Blockbench 4.10.3 glTF exporter"},"scenes":[{"nodes":[16],"name":"blockbench_export"}],"scene":0,"nodes":[{"translation":[-0.5531250000000001,0.5828125000000002,-0.07187500000000008],"name":"bone"},{"translation":[0,0.22812500000000097,0],"name":"socket","mesh":0},{"rotation":[0.7132504491541816,0,0,0.7009092642998509],"translation":[-1.894851796836205e-17,0.1628243983906801,0.5374619237890987],"name":"knob","mesh":1},{"translation":[0.5531250000000001,-0.7500000000000001,0.07187500000000008],"name":"cuboid","mesh":2},{"translation":[0.5531250000000001,0.4609375,0.07187500000000008],"name":"cuboid","mesh":3},{"rotation":[0,0,0.14996675555404498,0.9886910398241674],"translation":[0.10781250000000003,-0.4265625000000002,0],"name":"cuboid","mesh":4},{"rotation":[0,0,-0.14996675555404498,0.9886910398241674],"translation":[1.003125,-0.4265625000000002,0],"name":"cuboid","mesh":5},{"rotation":[0,0,0.056692787563377506,0.9983916705573488],"translation":[1.11875,0,0],"name":"cuboid","mesh":6},{"rotation":[0,0,-0.056692787563377506,0.9983916705573488],"name":"cuboid","mesh":7},{"translation":[0.5531250000000001,0.7609375000000003,0.07187500000000008],"name":"cuboid","mesh":8},{"translation":[0.5531250000000001,-0.5406249999999995,0.07187500000000008],"name":"cuboid","mesh":9},{"translation":[-0.5531250000000001,0.5828125000000002,-0.07187500000000008],"name":"body","children":[3,4,5,6,7,8,9,10]},{"name":"bone2"},{"name":"bulb","mesh":10},{"translation":[0,0.5234375000000009,0],"name":"Light","children":[12,13]},{"translation":[0,0.22812500000000097,0],"name":"Miscellaneous"},{"children":[0,1,2,11,14,15]}],"bufferViews":[{"buffer":0,"byteOffset":0,"byteLength":768,"target":34962,"byteStride":12},{"buffer":0,"byteOffset":768,"byteLength":768,"target":34962,"byteStride":12},{"buffer":0,"byteOffset":1536,"byteLength":512,"target":34962,"byteStride":8},{"buffer":0,"byteOffset":2048,"byteLength":192,"target":34963},{"buffer":0,"byteOffset":2240,"byteLength":1440,"target":34962,"byteStride":12},{"buffer":0,"byteOffset":3680,"byteLength":1440,"target":34962,"byteStride":12},{"buffer":0,"byteOffset":5120,"byteLength":960,"target":34962,"byteStride":8},{"buffer":0,"byteOffset":6080,"byteLength":288,"target":34963},{"buffer":0,"byteOffset":6368,"byteLength":768,"target":34962,"byteStride":12},{"buffer":0,"byteOffset":7136,"byteLength":768,"target":34962,"byteStride":12},{"buffer":0,"byteOffset":7904,"byteLength":512,"target":34962,"byteStride":8},{"buffer":0,"byteOffset":8416,"byteLength":192,"target":34963},{"buffer":0,"byteOffset":8608,"byteLength":768,"target":34962,"byteStride":12},{"buffer":0,"byteOffset":9376,"byteLength":768,"target":34962,"byteStride":12},{"buffer":0,"byteOffset":10144,"byteLength":512,"target":34962,"byteStride":8},{"buffer":0,"byteOffset":10656,"byteLength":192,"target":34963},{"buffer":0,"byteOffset":10848,"byteLength":288,"target":34962,"byteStride":12},{"buffer":0,"byteOffset":11136,"byteLength":288,"target":34962,"byteStride":12},{"buffer":0,"byteOffset":11424,"byteLength":192,"target":34962,"byteStride":8},{"buffer":0,"byteOffset":11616,"byteLength":72,"target":34963},{"buffer":0,"byteOffset":11688,"byteLength":288,"target":34962,"byteStride":12},{"buffer":0,"byteOffset":11976,"byteLength":288,"target":34962,"byteStride":12},{"buffer":0,"byteOffset":12264,"byteLength":192,"target":34962,"byteStride":8},{"buffer":0,"byteOffset":12456,"byteLength":72,"target":34963},{"buffer":0,"byteOffset":12528,"byteLength":288,"target":34962,"byteStride":12},{"buffer":0,"byteOffset":12816,"byteLength":288,"target":34962,"byteStride":12},{"buffer":0,"byteOffset":13104,"byteLength":192,"target":34962,"byteStride":8},{"buffer":0,"byteOffset":13296,"byteLength":72,"target":34963},{"buffer":0,"byteOffset":13368,"byteLength":288,"target":34962,"byteStride":12},{"buffer":0,"byteOffset":13656,"byteLength":288,"target":34962,"byteStride":12},{"buffer":0,"byteOffset":13944,"byteLength":192,"target":34962,"byteStride":8},{"buffer":0,"byteOffset":14136,"byteLength":72,"target":34963},{"buffer":0,"byteOffset":14208,"byteLength":768,"target":34962,"byteStride":12},{"buffer":0,"byteOffset":14976,"byteLength":768,"target":34962,"byteStride":12},{"buffer":0,"byteOffset":15744,"byteLength":512,"target":34962,"byteStride":8},{"buffer":0,"byteOffset":16256,"byteLength":192,"target":34963},{"buffer":0,"byteOffset":16448,"byteLength":768,"target":34962,"byteStride":12},{"buffer":0,"byteOffset":17216,"byteLength":768,"target":34962,"byteStride":12},{"buffer":0,"byteOffset":17984,"byteLength":512,"target":34962,"byteStride":8},{"buffer":0,"byteOffset":18496,"byteLength":192,"target":34963},{"buffer":0,"byteOffset":18688,"byteLength":768,"target":34962,"byteStride":12},{"buffer":0,"byteOffset":19456,"byteLength":768,"target":34962,"byteStride":12},{"buffer":0,"byteOffset":20224,"byteLength":512,"target":34962,"byteStride":8},{"buffer":0,"byteOffset":20736,"byteLength":192,"target":34963}],"buffers":[{"byteLength":20928,"uri":"data:application/octet-stream;base64,"}],"accessors":[{"bufferView":0,"componentType":5126,"count":64,"max":[0.13593749701976776,0.3656249940395355,0.11249999701976776],"min":[-0.13593749701976776,0.13437500596046448,-0.11249999701976776],"type":"VEC3"},{"bufferView":1,"componentType":5126,"count":64,"max":[0.9337602257728577,1,0.965406596660614],"min":[-0.9337602257728577,-1,-0.965406596660614],"type":"VEC3"},{"bufferView":2,"componentType":5126,"count":64,"max":[0.8125,0.875],"min":[0.02031249925494194,0],"type":"VEC2"},{"bufferView":3,"componentType":5123,"count":96,"max":[63],"min":[0],"type":"SCALAR"},{"bufferView":4,"componentType":5126,"count":120,"max":[0.0625,0.046875,0.0625],"min":[-0.0625,-0.046875,-0.0625],"type":"VEC3"},{"bufferView":5,"componentType":5126,"count":120,"max":[1,1,1],"min":[-1,-1,-1],"type":"VEC3"},{"bufferView":6,"componentType":5126,"count":120,"max":[0.8627312779426575,0.90625],"min":[0,0.3125],"type":"VEC2"},{"bufferView":7,"componentType":5123,"count":144,"max":[119],"min":[0],"type":"SCALAR"},{"bufferView":8,"componentType":5126,"count":64,"max":[0.5703125,0.421875,0.546875],"min":[-0.5703125,0.078125,-0.546875],"type":"VEC3"},{"bufferView":9,"componentType":5126,"count":64,"max":[0.9494028091430664,1,0.9543577432632446],"min":[-0.9494028091430664,-1,-0.9543577432632446],"type":"VEC3"},{"bufferView":10,"componentType":5126,"count":64,"max":[0.4375,0.4296875],"min":[0,0],"type":"VEC2"},{"bufferView":11,"componentType":5123,"count":96,"max":[63],"min":[0],"type":"SCALAR"},{"bufferView":12,"componentType":5126,"count":64,"max":[0.5703125,0.421875,0.546875],"min":[-0.5703125,0.078125,-0.546875],"type":"VEC3"},{"bufferView":13,"componentType":5126,"count":64,"max":[0.9494028091430664,1,0.9543577432632446],"min":[-0.9494028091430664,-1,-0.9543577432632446],"type":"VEC3"},{"bufferView":14,"componentType":5126,"count":64,"max":[0.46875,0.46875],"min":[0,0],"type":"VEC2"},{"bufferView":15,"componentType":5123,"count":96,"max":[63],"min":[0],"type":"SCALAR"},{"bufferView":16,"componentType":5126,"count":24,"max":[0.078125,0.43281251192092896,0.07500000298023224],"min":[-0.078125,0.06718750298023224,-0.07500000298023224],"type":"VEC3"},{"bufferView":17,"componentType":5126,"count":24,"max":[1,1,1],"min":[-1,-1,-1],"type":"VEC3"},{"bufferView":18,"componentType":5126,"count":24,"max":[0.46875,0.5234375],"min":[0.125,0.109375],"type":"VEC2"},{"bufferView":19,"componentType":5123,"count":36,"max":[23],"min":[0],"type":"SCALAR"},{"bufferView":20,"componentType":5126,"count":24,"max":[0.078125,0.43281251192092896,0.07500000298023224],"min":[-0.078125,0.06718750298023224,-0.07500000298023224],"type":"VEC3"},{"bufferView":21,"componentType":5126,"count":24,"max":[1,1,1],"min":[-1,-1,-1],"type":"VEC3"},{"bufferView":22,"componentType":5126,"count":24,"max":[0.4921875,0.5234375],"min":[0,0.1875],"type":"VEC2"},{"bufferView":23,"componentType":5123,"count":36,"max":[23],"min":[0],"type":"SCALAR"},{"bufferView":24,"componentType":5126,"count":24,"max":[0.078125,0.5375000238418579,0.07500000298023224],"min":[-0.078125,-0.03750000149011612,-0.07500000298023224],"type":"VEC3"},{"bufferView":25,"componentType":5126,"count":24,"max":[1,1,1],"min":[-1,-1,-1],"type":"VEC3"},{"bufferView":26,"componentType":5126,"count":24,"max":[0.5,0.5078125],"min":[0.265625,0.1484375],"type":"VEC2"},{"bufferView":27,"componentType":5123,"count":36,"max":[23],"min":[0],"type":"SCALAR"},{"bufferView":28,"componentType":5126,"count":24,"max":[0.078125,0.5375000238418579,0.07500000298023224],"min":[-0.078125,-0.03750000149011612,-0.07500000298023224],"type":"VEC3"},{"bufferView":29,"componentType":5126,"count":24,"max":[1,1,1],"min":[-1,-1,-1],"type":"VEC3"},{"bufferView":30,"componentType":5126,"count":24,"max":[0.5078125,0.546875],"min":[0.109375,0],"type":"VEC2"},{"bufferView":31,"componentType":5123,"count":36,"max":[23],"min":[0],"type":"SCALAR"},{"bufferView":32,"componentType":5126,"count":64,"max":[0.40312498807907104,0.421875,0.37968748807907104],"min":[-0.40312498807907104,0.078125,-0.37968748807907104],"type":"VEC3"},{"bufferView":33,"componentType":5126,"count":64,"max":[0.9476975202560425,1,0.9558609127998352],"min":[-0.9476975202560425,-1,-0.9558609127998352],"type":"VEC3"},{"bufferView":34,"componentType":5126,"count":64,"max":[0.4765625,0.4921875],"min":[0.0003906250058207661,0],"type":"VEC2"},{"bufferView":35,"componentType":5123,"count":96,"max":[63],"min":[0],"type":"SCALAR"},{"bufferView":36,"componentType":5126,"count":64,"max":[0.40312498807907104,0.3218750059604645,0.37968748807907104],"min":[-0.40312498807907104,0.17812499403953552,-0.37968748807907104],"type":"VEC3"},{"bufferView":37,"componentType":5126,"count":64,"max":[0.9476975202560425,1,0.9558609127998352],"min":[-0.9476975202560425,-1,-0.9558609127998352],"type":"VEC3"},{"bufferView":38,"componentType":5126,"count":64,"max":[0.515625,0.4453125],"min":[0.0625,0.13945311307907104],"type":"VEC2"},{"bufferView":39,"componentType":5123,"count":96,"max":[63],"min":[0],"type":"SCALAR"},{"bufferView":40,"componentType":5126,"count":64,"max":[0.20781250298023224,0.4390625059604645,0.18437500298023224],"min":[-0.20781250298023224,0.06093750149011612,-0.18437500298023224],"type":"VEC3"},{"bufferView":41,"componentType":5126,"count":64,"max":[0.9416274428367615,1,0.9605436325073242],"min":[-0.9416274428367615,-1,-0.9605436325073242],"type":"VEC3"},{"bufferView":42,"componentType":5126,"count":64,"max":[0.46875,0.625],"min":[0,0],"type":"VEC2"},{"bufferView":43,"componentType":5123,"count":96,"max":[63],"min":[0],"type":"SCALAR"}],"materials":[{"pbrMetallicRoughness":{"metallicFactor":0,"roughnessFactor":1,"baseColorTexture":{"index":0}},"alphaMode":"MASK","alphaCutoff":0.05,"doubleSided":true},{"pbrMetallicRoughness":{"metallicFactor":0,"roughnessFactor":1,"baseColorTexture":{"index":1}},"alphaMode":"MASK","alphaCutoff":0.05,"doubleSided":true},{"pbrMetallicRoughness":{"metallicFactor":0,"roughnessFactor":1,"baseColorTexture":{"index":2}},"alphaMode":"MASK","alphaCutoff":0.05,"doubleSided":true}],"textures":[{"sampler":0,"source":0,"name":"Miscellaneous Stuff"},{"sampler":1,"source":1,"name":"Lanternbody"},{"sampler":2,"source":2,"name":"Lightbulb"}],"samplers":[{"magFilter":9728,"minFilter":9728,"wrapS":33071,"wrapT":33071},{"magFilter":9728,"minFilter":9728,"wrapS":33071,"wrapT":33071},{"magFilter":9728,"minFilter":9728,"wrapS":33071,"wrapT":33071}],"images":[{"mimeType":"image/png","uri":"data:image/png;base64,"},{"mimeType":"image/png","uri":"data:image/png;base64,"},{"mimeType":"image/png","uri":"data:image/png;base64,"}],"meshes":[{"primitives":[{"mode":4,"attributes":{"POSITION":0,"NORMAL":1,"TEXCOORD_0":2},"indices":3,"material":0}]},{"primitives":[{"mode":4,"attributes":{"POSITION":4,"NORMAL":5,"TEXCOORD_0":6},"indices":7,"material":0}]},{"primitives":[{"mode":4,"attributes":{"POSITION":8,"NORMAL":9,"TEXCOORD_0":10},"indices":11,"material":1}]},{"primitives":[{"mode":4,"attributes":{"POSITION":12,"NORMAL":13,"TEXCOORD_0":14},"indices":15,"material":1}]},{"primitives":[{"mode":4,"attributes":{"POSITION":16,"NORMAL":17,"TEXCOORD_0":18},"indices":19,"material":1}]},{"primitives":[{"mode":4,"attributes":{"POSITION":20,"NORMAL":21,"TEXCOORD_0":22},"indices":23,"material":1}]},{"primitives":[{"mode":4,"attributes":{"POSITION":24,"NORMAL":25,"TEXCOORD_0":26},"indices":27,"material":1}]},{"primitives":[{"mode":4,"attributes":{"POSITION":28,"NORMAL":29,"TEXCOORD_0":30},"indices":31,"material":1}]},{"primitives":[{"mode":4,"attributes":{"POSITION":32,"NORMAL":33,"TEXCOORD_0":34},"indices":35,"material":1}]},{"primitives":[{"mode":4,"attributes":{"POSITION":36,"NORMAL":37,"TEXCOORD_0":38},"indices":39,"material":1}]},{"primitives":[{"mode":4,"attributes":{"POSITION":40,"NORMAL":41,"TEXCOORD_0":42},"indices":43,"material":2}]}]}