# Made in Blockbench 4.10.3
mtllib Mythril_Plate.mtl

o Plate
v -0.3094763575339959 0.6250000000000007 -0.07607157240053353
v 0.12760723940806695 0.6249999999999998 -0.05698809042819908
v -0.3122025692443293 0.6250000000000007 -0.013631058551667408
v 0.12488102769773346 0.6249999999999998 0.005452423420666985
v 0.12760723940806584 0.06249999999999978 -0.056988090428199134
v -0.309476357533997 0.06250000000000067 -0.07607157240053358
v 0.12488102769773235 0.06249999999999978 0.005452423420666985
v -0.3122025692443305 0.06250000000000067 -0.013631058551667463
vt 0.28125 1
vt 0.5625 1
vt 0.5625 0.96875
vt 0.28125 0.96875
vt 0.28125 0.9375
vt 0.5 0.9375
vt 0.5 0.90625
vt 0.28125 0.90625
vt 0.28125 0.96875
vt 0.5625 0.96875
vt 0.5625 0.9375
vt 0.28125 0.9375
vt 0.28125 0.90625
vt 0.5 0.90625
vt 0.5 0.875
vt 0.28125 0.875
vt 0.28125 0.78125
vt 0 0.78125
vt 0 1
vt 0.28125 1
vt 0.28125 0.78125
vt 0 0.78125
vt 0 0.5625
vt 0.28125 0.5625
vn 0.9990482215818578 -1.9989207713684406e-15 0.04361938736533577
vn 2.0061848585943963e-15 1 -1.346642209507278e-16
vn -0.9990482215818578 1.9989207713684406e-15 -0.04361938736533577
vn -2.0061848585943963e-15 -1 1.346642209507278e-16
vn 0.04361938736533588 -3.171072979592148e-17 -0.9990482215818579
vn -0.04361938736533588 3.171072979592148e-17 0.9990482215818579
usemtl m_1ca891fd-398b-da12-e161-6afbeb448ccd
f 4/4/1 7/3/1 5/2/1 2/1/1
f 3/8/2 4/7/2 2/6/2 1/5/2
f 8/12/3 3/11/3 1/10/3 6/9/3
f 7/16/4 8/15/4 6/14/4 5/13/4
f 6/20/5 1/19/5 2/18/5 5/17/5
f 7/24/6 4/23/6 3/22/6 8/21/6