# Made in Blockbench 4.10.3
mtllib Exclamation_Trophy.mtl

o Base
v -2.0816681711721685e-17 0 -2.0816681711721685e-17
v -2.0816681711721685e-17 0.09375 -2.0816681711721685e-17
v 0.033493649053890316 0 0.12499999999999997
v 0.033493649053890316 0.09375 0.12499999999999997
v 0.09150635094610962 0 0.09150635094610965
v 0.09150635094610962 0.09375 0.09150635094610965
v 0.12499999999999997 0 0.03349364905389031
v 0.12499999999999997 0.09375 0.03349364905389031
v 0.12499999999999997 0 -0.033493649053890365
v 0.12499999999999997 0.09375 -0.033493649053890365
v 0.09150635094610966 0 -0.09150635094610968
v 0.09150635094610966 0.09375 -0.09150635094610968
v 0.03349364905389035 0 -0.125
v 0.03349364905389035 0.09375 -0.125
v -0.0334936490538903 0 -0.12500000000000003
v -0.0334936490538903 0.09375 -0.12500000000000003
v -0.09150635094610968 0 -0.0915063509461097
v -0.09150635094610968 0.09375 -0.0915063509461097
v -0.125 0 -0.03349364905389034
v -0.125 0.09375 -0.03349364905389034
v -0.12500000000000003 0 0.033493649053890254
v -0.12500000000000003 0.09375 0.033493649053890254
v -0.09150635094610972 0 0.09150635094610962
v -0.09150635094610972 0.09375 0.09150635094610962
v -0.033493649053890344 0 0.12499999999999997
v -0.033493649053890344 0.09375 0.12499999999999997
vt 0.21650625 0.96650625
vt 0.15849375 1
vt 0.125 0.875
vt 0.84599375 0.90625
vt 0.9129812500000001 0.90625
vt 0.9129812500000001 1
vt 0.84599375 1
vt 0.15849375 0.4375
vt 0.21650625 0.47099375
vt 0.125 0.5625
vt 0.25 0.90849375
vt 0.21650625 0.96650625
vt 0.125 0.875
vt 0.024518749999999992 0.28125
vt 0.09150625 0.28125
vt 0.09150625 0.375
vt 0.024518749999999992 0.375
vt 0.21650625 0.47099375
vt 0.25 0.52900625
vt 0.125 0.5625
vt 0.25 0.84150625
vt 0.25 0.90849375
vt 0.125 0.875
vt 0.09150625 0.28125
vt 0.15849375 0.28125
vt 0.15849375 0.375
vt 0.09150625 0.375
vt 0.25 0.52900625
vt 0.25 0.59599375
vt 0.125 0.5625
vt 0.21650625 0.78349375
vt 0.25 0.84150625
vt 0.125 0.875
vt 0.15849375 0.28125
vt 0.22548125000000002 0.28125
vt 0.22548125000000002 0.375
vt 0.15849375 0.375
vt 0.25 0.59599375
vt 0.21650625 0.65400625
vt 0.125 0.5625
vt 0.15849375 0.75
vt 0.21650625 0.78349375
vt 0.125 0.875
vt 0.71201875 0.53125
vt 0.77900625 0.53125
vt 0.77900625 0.625
vt 0.71201875 0.625
vt 0.21650625 0.65400625
vt 0.15849375 0.6875
vt 0.125 0.5625
vt 0.09150625 0.75
vt 0.15849375 0.75
vt 0.125 0.875
vt 0.77900625 0.53125
vt 0.84599375 0.53125
vt 0.84599375 0.625
vt 0.77900625 0.625
vt 0.15849375 0.6875
vt 0.09150625 0.6875
vt 0.125 0.5625
vt 0.03349375 0.78349375
vt 0.09150625 0.75
vt 0.125 0.875
vt 0.84599375 0.53125
vt 0.9129812500000001 0.53125
vt 0.9129812500000001 0.625
vt 0.84599375 0.625
vt 0.09150625 0.6875
vt 0.03349375 0.65400625
vt 0.125 0.5625
vt 0 0.84150625
vt 0.03349375 0.78349375
vt 0.125 0.875
vt 0.71201875 0.71875
vt 0.77900625 0.71875
vt 0.77900625 0.8125
vt 0.71201875 0.8125
vt 0.03349375 0.65400625
vt 0 0.59599375
vt 0.125 0.5625
vt 0 0.90849375
vt 0 0.84150625
vt 0.125 0.875
vt 0.77900625 0.71875
vt 0.84599375 0.71875
vt 0.84599375 0.8125
vt 0.77900625 0.8125
vt 0 0.59599375
vt 0 0.52900625
vt 0.125 0.5625
vt 0.03349375 0.96650625
vt 0 0.90849375
vt 0.125 0.875
vt 0.84599375 0.71875
vt 0.9129812500000001 0.71875
vt 0.9129812500000001 0.8125
vt 0.84599375 0.8125
vt 0 0.52900625
vt 0.03349375 0.47099375
vt 0.125 0.5625
vt 0.09150625 1
vt 0.03349375 0.96650625
vt 0.125 0.875
vt 0.71201875 0.90625
vt 0.77900625 0.90625
vt 0.77900625 1
vt 0.71201875 1
vt 0.03349375 0.47099375
vt 0.09150625 0.4375
vt 0.125 0.5625
vt 0.15849375 1
vt 0.09150625 1
vt 0.125 0.875
vt 0.77900625 0.90625
vt 0.84599375 0.90625
vt 0.84599375 1
vt 0.77900625 1
vt 0.09150625 0.4375
vt 0.15849375 0.4375
vt 0.125 0.5625
vn 0 -1 0
vn 0.49999999999999994 0 0.8660254037844387
vn 0 1 0
vn 0 -1 0
vn 0.8660254037844386 0 0.5000000000000001
vn 0 1 0
vn 0 -1 0
vn 1 0 0
vn 0 1 0
vn 0 -1 0
vn 0.8660254037844388 0 -0.4999999999999997
vn 0 1 0
vn 0 -1 0
vn 0.4999999999999999 0 -0.8660254037844387
vn 0 1 0
vn 0 -1 0
vn 4.143408735633879e-16 0 -1
vn 0 1 0
vn 0 -1 0
vn -0.4999999999999995 0 -0.8660254037844389
vn 0 1 0
vn 0 -1 0
vn -0.8660254037844389 0 -0.4999999999999995
vn 0 1 0
vn 0 -1 0
vn -1 0 -4.1434087356338823e-16
vn 0 1 0
vn 0 -1 0
vn -0.866025403784439 0 0.4999999999999994
vn 0 1 0
vn 0 -1 0
vn -0.4999999999999999 0 0.8660254037844389
vn 0 1 0
vn 0 -1 0
vn 0 0 1
vn 0 1 0
usemtl m_22f23dc2-dec1-ddca-beeb-a102fab87ee7
f 5/1/1 3/2/1 1/3/1
f 3/4/2 5/5/2 6/6/2 4/7/2
f 4/8/3 6/9/3 2/10/3
f 7/11/4 5/12/4 1/13/4
f 5/14/5 7/15/5 8/16/5 6/17/5
f 6/18/6 8/19/6 2/20/6
f 9/21/7 7/22/7 1/23/7
f 7/24/8 9/25/8 10/26/8 8/27/8
f 8/28/9 10/29/9 2/30/9
f 11/31/10 9/32/10 1/33/10
f 9/34/11 11/35/11 12/36/11 10/37/11
f 10/38/12 12/39/12 2/40/12
f 13/41/13 11/42/13 1/43/13
f 11/44/14 13/45/14 14/46/14 12/47/14
f 12/48/15 14/49/15 2/50/15
f 15/51/16 13/52/16 1/53/16
f 13/54/17 15/55/17 16/56/17 14/57/17
f 14/58/18 16/59/18 2/60/18
f 17/61/19 15/62/19 1/63/19
f 15/64/20 17/65/20 18/66/20 16/67/20
f 16/68/21 18/69/21 2/70/21
f 19/71/22 17/72/22 1/73/22
f 17/74/23 19/75/23 20/76/23 18/77/23
f 18/78/24 20/79/24 2/80/24
f 21/81/25 19/82/25 1/83/25
f 19/84/26 21/85/26 22/86/26 20/87/26
f 20/88/27 22/89/27 2/90/27
f 23/91/28 21/92/28 1/93/28
f 21/94/29 23/95/29 24/96/29 22/97/29
f 22/98/30 24/99/30 2/100/30
f 25/101/31 23/102/31 1/103/31
f 23/104/32 25/105/32 26/106/32 24/107/32
f 24/108/33 26/109/33 2/110/33
f 3/111/34 25/112/34 1/113/34
f 25/114/35 3/115/35 4/116/35 26/117/35
f 26/118/36 4/119/36 2/120/36
o cuboid
v 0.0625 0.6375000000000001 0.0625
v 0.0625 0.6375000000000001 -0.0625
v 0.0375 0.26250000000000007 0.03125
v 0.0375 0.26250000000000007 -0.03125
v -0.0625 0.6375000000000001 0.0625
v -0.0625 0.6375000000000001 -0.0625
v -0.0375 0.26250000000000007 0.03125
v -0.0375 0.26250000000000007 -0.03125
vt 0.43728505891477737 0.4344492739777095
vt 0.31271494108522263 0.44480715715579433
vt 0.31271494108522263 0.06767894158904242
vt 0.375 0.0625
vt 0.5625 0.0625
vt 0.6247850589147774 0.4344492739777095
vt 0.5002149410852226 0.44480715715579433
vt 0.5002149410852226 0.06767894158904242
vt 0.6875 0.3125
vt 0.8125 0.3125
vt 0.8125 0.4375
vt 0.6875 0.4375
vt 0.25 0.125
vt 0.25 0.1875
vt 0.1875 0.1875
vt 0.1875 0.125
vt 0.3874725048030392 0.5625
vt 0.43736252401519576 0.9363150291026441
vt 0.31263747598480424 0.9446013065428773
vt 0.31263747598480424 0.56747176646414
vt 0.6248625240151958 0.9363150291026441
vt 0.5001374759848042 0.9446013065428773
vt 0.5001374759848042 0.56747176646414
vt 0.5749725048030392 0.5625
vn 0.997785157856609 -0.06651901052377394 0
vn -0.997785157856609 -0.06651901052377394 0
vn 0 1 0
vn 0 -1 0
vn 0 -0.08304547985373997 0.9965457582448798
vn 0 -0.08304547985373999 -0.9965457582448798
usemtl m_22f23dc2-dec1-ddca-beeb-a102fab87ee7
f 28/121/37 27/122/37 29/123/37 30/124/37
f 33/125/38 31/126/38 32/127/38 34/128/38
f 31/129/39 27/130/39 28/131/39 32/132/39
f 30/133/40 29/134/40 33/135/40 34/136/40
f 29/137/41 27/138/41 31/139/41 33/140/41
f 32/141/42 28/142/42 30/143/42 34/144/42
o cylinder
v -2.4986690067435163e-17 0.18749999999999997 -0.03125000000000003
v -2.4986690067435163e-17 0.18749999999999997 0.031249999999999972
v 0.01256011839520885 0.14062499999999997 -0.031250000000000014
v 0.01256011839520885 0.14062499999999997 0.031249999999999986
v 0.03431488160479109 0.15318511839520885 -0.03125000000000002
v 0.03431488160479109 0.15318511839520885 0.03124999999999998
v 0.04687499999999997 0.1749398816047911 -0.03125000000000002
v 0.04687499999999997 0.1749398816047911 0.031249999999999972
v 0.04687499999999997 0.20006011839520885 -0.03125000000000003
v 0.04687499999999997 0.20006011839520885 0.03124999999999997
v 0.0343148816047911 0.22181488160479107 -0.031250000000000035
v 0.0343148816047911 0.2218148816047911 0.031249999999999965
v 0.012560118395208866 0.23437499999999994 -0.031250000000000035
v 0.012560118395208866 0.23437499999999997 0.031249999999999962
v -0.012560118395208882 0.23437499999999997 -0.03125000000000004
v -0.012560118395208882 0.23437499999999997 0.031249999999999962
v -0.034314881604791146 0.2218148816047911 -0.031250000000000035
v -0.034314881604791146 0.2218148816047911 0.031249999999999965
v -0.046875000000000014 0.20006011839520882 -0.03125000000000003
v -0.046875000000000014 0.20006011839520885 0.03124999999999997
v -0.04687500000000003 0.17493988160479113 -0.03125000000000002
v -0.04687500000000003 0.17493988160479113 0.031249999999999972
v -0.03431488160479115 0.15318511839520885 -0.03125000000000002
v -0.03431488160479115 0.15318511839520887 0.03124999999999998
v -0.012560118395208897 0.14062499999999997 -0.031250000000000014
v -0.012560118395208897 0.14062499999999997 0.031249999999999986
vt 0.7843125 0.20618749999999997
vt 0.7625625 0.21875
vt 0.75 0.171875
vt 0.9500625 0.25
vt 0.9751875 0.25
vt 0.9751875 0.3125
vt 0.9500625 0.3125
vt 0.0750625 0.09375
vt 0.0968125 0.10631250000000003
vt 0.0625 0.140625
vt 0.796875 0.18443750000000003
vt 0.7843125 0.20618749999999997
vt 0.75 0.171875
vt 0.8998125 0.375
vt 0.9249375 0.375
vt 0.9249375 0.4375
vt 0.8998125 0.4375
vt 0.0968125 0.10631250000000003
vt 0.109375 0.12806249999999997
vt 0.0625 0.140625
vt 0.796875 0.15931249999999997
vt 0.796875 0.18443750000000003
vt 0.75 0.171875
vt 0.9249375 0.375
vt 0.9500625 0.375
vt 0.9500625 0.4375
vt 0.9249375 0.4375
vt 0.109375 0.12806249999999997
vt 0.109375 0.15318750000000003
vt 0.0625 0.140625
vt 0.7843125 0.13756250000000003
vt 0.796875 0.15931249999999997
vt 0.75 0.171875
vt 0.9500625 0.375
vt 0.9751875 0.375
vt 0.9751875 0.4375
vt 0.9500625 0.4375
vt 0.109375 0.15318750000000003
vt 0.0968125 0.17493749999999997
vt 0.0625 0.140625
vt 0.7625625 0.125
vt 0.7843125 0.13756250000000003
vt 0.75 0.171875
vt 0.7123125 0
vt 0.7374375 0
vt 0.7374375 0.0625
vt 0.7123125 0.0625
vt 0.0968125 0.17493749999999997
vt 0.0750625 0.1875
vt 0.0625 0.140625
vt 0.7374375 0.125
vt 0.7625625 0.125
vt 0.75 0.171875
vt 0.7374375 0
vt 0.7625625 0
vt 0.7625625 0.0625
vt 0.7374375 0.0625
vt 0.0750625 0.1875
vt 0.049937499999999996 0.1875
vt 0.0625 0.140625
vt 0.7156875 0.13756250000000003
vt 0.7374375 0.125
vt 0.75 0.171875
vt 0.7625625 0
vt 0.7876875 0
vt 0.7876875 0.0625
vt 0.7625625 0.0625
vt 0.049937499999999996 0.1875
vt 0.028187499999999997 0.17493749999999997
vt 0.0625 0.140625
vt 0.703125 0.15931249999999997
vt 0.7156875 0.13756250000000003
vt 0.75 0.171875
vt 0.8998125 0.125
vt 0.9249375 0.125
vt 0.9249375 0.1875
vt 0.8998125 0.1875
vt 0.028187499999999997 0.17493749999999997
vt 0.015625 0.15318750000000003
vt 0.0625 0.140625
vt 0.703125 0.18443750000000003
vt 0.703125 0.15931249999999997
vt 0.75 0.171875
vt 0.9249375 0.125
vt 0.9500625 0.125
vt 0.9500625 0.1875
vt 0.9249375 0.1875
vt 0.015625 0.15318750000000003
vt 0.015625 0.12806249999999997
vt 0.0625 0.140625
vt 0.7156875 0.20618749999999997
vt 0.703125 0.18443750000000003
vt 0.75 0.171875
vt 0.9500625 0.125
vt 0.9751875 0.125
vt 0.9751875 0.1875
vt 0.9500625 0.1875
vt 0.015625 0.12806249999999997
vt 0.028187499999999997 0.10631250000000003
vt 0.0625 0.140625
vt 0.7374375 0.21875
vt 0.7156875 0.20618749999999997
vt 0.75 0.171875
vt 0.8998125 0.25
vt 0.9249375 0.25
vt 0.9249375 0.3125
vt 0.8998125 0.3125
vt 0.028187499999999997 0.10631250000000003
vt 0.049937499999999996 0.09375
vt 0.0625 0.140625
vt 0.7625625 0.21875
vt 0.7374375 0.21875
vt 0.75 0.171875
vt 0.9249375 0.25
vt 0.9500625 0.25
vt 0.9500625 0.3125
vt 0.9249375 0.3125
vt 0.049937499999999996 0.09375
vt 0.0750625 0.09375
vt 0.0625 0.140625
vn 0 -2.220446049250313e-16 -1
vn 0.5 -0.8660254037844387 1.922962686383564e-16
vn 0 2.220446049250313e-16 1
vn 0 -2.220446049250313e-16 -1
vn 0.8660254037844386 -0.5000000000000001 1.1102230246251568e-16
vn 0 2.220446049250313e-16 1
vn 0 -2.220446049250313e-16 -1
vn 1 0 0
vn 0 2.220446049250313e-16 1
vn 0 -2.220446049250313e-16 -1
vn 0.8660254037844387 0.5000000000000001 -1.1102230246251568e-16
vn 0 2.220446049250313e-16 1
vn 0 -2.220446049250313e-16 -1
vn 0.5 0.8660254037844388 -1.9229626863835643e-16
vn 0 2.220446049250313e-16 1
vn 0 -2.220446049250313e-16 -1
vn 5.524544980845171e-16 1 -2.220446049250313e-16
vn 0 2.220446049250313e-16 1
vn 0 -2.220446049250313e-16 -1
vn -0.49999999999999967 0.8660254037844389 -1.9229626863835646e-16
vn 0 2.220446049250313e-16 1
vn 0 -2.220446049250313e-16 -1
vn -0.8660254037844389 0.4999999999999995 -1.1102230246251554e-16
vn 0 2.220446049250313e-16 1
vn 0 -2.220446049250313e-16 -1
vn -1 5.524544980845176e-16 -1.2266954076623319e-31
vn 0 2.220446049250313e-16 1
vn 0 -2.220446049250313e-16 -1
vn -0.8660254037844389 -0.49999999999999967 1.1102230246251558e-16
vn 0 2.220446049250313e-16 1
vn 0 -2.220446049250313e-16 -1
vn -0.5000000000000001 -0.8660254037844388 1.9229626863835643e-16
vn 0 2.220446049250313e-16 1
vn 0 -2.220446049250313e-16 -1
vn 0 -1 2.220446049250313e-16
vn 0 2.220446049250313e-16 1
usemtl m_22f23dc2-dec1-ddca-beeb-a102fab87ee7
f 39/145/43 37/146/43 35/147/43
f 37/148/44 39/149/44 40/150/44 38/151/44
f 38/152/45 40/153/45 36/154/45
f 41/155/46 39/156/46 35/157/46
f 39/158/47 41/159/47 42/160/47 40/161/47
f 40/162/48 42/163/48 36/164/48
f 43/165/49 41/166/49 35/167/49
f 41/168/50 43/169/50 44/170/50 42/171/50
f 42/172/51 44/173/51 36/174/51
f 45/175/52 43/176/52 35/177/52
f 43/178/53 45/179/53 46/180/53 44/181/53
f 44/182/54 46/183/54 36/184/54
f 47/185/55 45/186/55 35/187/55
f 45/188/56 47/189/56 48/190/56 46/191/56
f 46/192/57 48/193/57 36/194/57
f 49/195/58 47/196/58 35/197/58
f 47/198/59 49/199/59 50/200/59 48/201/59
f 48/202/60 50/203/60 36/204/60
f 51/205/61 49/206/61 35/207/61
f 49/208/62 51/209/62 52/210/62 50/211/62
f 50/212/63 52/213/63 36/214/63
f 53/215/64 51/216/64 35/217/64
f 51/218/65 53/219/65 54/220/65 52/221/65
f 52/222/66 54/223/66 36/224/66
f 55/225/67 53/226/67 35/227/67
f 53/228/68 55/229/68 56/230/68 54/231/68
f 54/232/69 56/233/69 36/234/69
f 57/235/70 55/236/70 35/237/70
f 55/238/71 57/239/71 58/240/71 56/241/71
f 56/242/72 58/243/72 36/244/72
f 59/245/73 57/246/73 35/247/73
f 57/248/74 59/249/74 60/250/74 58/251/74
f 58/252/75 60/253/75 36/254/75
f 37/255/76 59/256/76 35/257/76
f 59/258/77 37/259/77 38/260/77 60/261/77
f 60/262/78 38/263/78 36/264/78